<svg width="512" height="512" viewBox="0 0 24 24" xmlns="http://www.w3.org/2000/svg">
    <rect width="24" height="24" rx="4" fill="#FF8C00"/>
    <g stroke="#FFFFFF" stroke-width="1.5" fill="none" stroke-linecap="round" stroke-linejoin="round">
        <path d="M10 16s-1.5-2-4-2-4 2-4 2"/>
        <path d="M6 16v-4a2 2 0 0 1 2-2h4a2 2 0 0 1 2 2v4"/>
        <path d="M6 12a2 2 0 0 0-2-2 2 2 0 0 0-2 2v4h4"/>
        <path d="M14 12a2 2 0 0 0-2-2 2 2 0 0 0-2 2v4h4"/>
        <path d="m6 8 1.7-1.7a.5.5 0 0 1 .7 0l1.6 1.6a.5.5 0 0 0 .7 0L12 6.3a.5.5 0 0 1 .7 0l1.6 1.6a.5.5 0 0 0 .7 0L16.4 6a.5.5 0 0 1 .7 0L19 8"/>
        <path d="M18 16s-1.5-2-4-2-4 2-4 2"/>
    </g>
</svg>
